<svg
  width="164"
  height="154"
  viewBox="0 0 164 154"
  fill="none"
  xmlns="http://www.w3.org/2000/svg"
>
  <g transform="translate(0, 0)">
    <title>beard - scruff</title>

    <path
      d="M31 109C31 109.552 30.5523 110 30 110C29.4477 110 29 109.552 29 109C29 108.448 29.4477 108 30 108C30.5523 108 31 108.448 31 109Z"
      fill="black"
    />
    <path
      d="M83 116C83 116.552 82.5523 117 82 117C81.4477 117 81 116.552 81 116C81 115.448 81.4477 115 82 115C82.5523 115 83 115.448 83 116Z"
      fill="black"
    />
    <path
      d="M79 123C79 123.552 78.5523 124 78 124C77.4477 124 77 123.552 77 123C77 122.448 77.4477 122 78 122C78.5523 122 79 122.448 79 123Z"
      fill="black"
    />
    <path
      d="M99 121C99 121.552 98.5523 122 98 122C97.4477 122 97 121.552 97 121C97 120.448 97.4477 120 98 120C98.5523 120 99 120.448 99 121Z"
      fill="black"
    />
    <path
      d="M100 111C100 111.552 99.5523 112 99 112C98.4477 112 98 111.552 98 111C98 110.448 98.4477 110 99 110C99.5523 110 100 110.448 100 111Z"
      fill="black"
    />
    <path
      d="M120 116C120 116.552 119.552 117 119 117C118.448 117 118 116.552 118 116C118 115.448 118.448 115 119 115C119.552 115 120 115.448 120 116Z"
      fill="black"
    />
    <path
      d="M130 102C130 102.552 129.552 103 129 103C128.448 103 128 102.552 128 102C128 101.448 128.448 101 129 101C129.552 101 130 101.448 130 102Z"
      fill="black"
    />
    <path
      d="M21 88C21 88.5523 20.5523 89 20 89C19.4477 89 19 88.5523 19 88C19 87.4477 19.4477 87 20 87C20.5523 87 21 87.4477 21 88Z"
      fill="black"
    />
    <path
      d="M54 104C54 104.552 53.5523 105 53 105C52.4477 105 52 104.552 52 104C52 103.448 52.4477 103 53 103C53.5523 103 54 103.448 54 104Z"
      fill="black"
    />
    <path
      d="M51 124C51 124.552 50.5523 125 50 125C49.4477 125 49 124.552 49 124C49 123.448 49.4477 123 50 123C50.5523 123 51 123.448 51 124Z"
      fill="black"
    />
    <path
      d="M69 128C69 128.552 68.5523 129 68 129C67.4477 129 67 128.552 67 128C67 127.448 67.4477 127 68 127C68.5523 127 69 127.448 69 128Z"
      fill="black"
    />
    <path
      d="M103 102C103 102.552 102.552 103 102 103C101.448 103 101 102.552 101 102C101 101.448 101.448 101 102 101C102.552 101 103 101.448 103 102Z"
      fill="black"
    />
    <path
      d="M117 106C117 106.552 116.552 107 116 107C115.448 107 115 106.552 115 106C115 105.448 115.448 105 116 105C116.552 105 117 105.448 117 106Z"
      fill="black"
    />
    <path
      d="M109 123C109 123.552 108.552 124 108 124C107.448 124 107 123.552 107 123C107 122.448 107.448 122 108 122C108.552 122 109 122.448 109 123Z"
      fill="black"
    />
    <path
      d="M123 92C123 92.5523 122.552 93 122 93C121.448 93 121 92.5523 121 92C121 91.4477 121.448 91 122 91C122.552 91 123 91.4477 123 92Z"
      fill="black"
    />
    <path
      d="M30 94C30 94.5523 29.5523 95 29 95C28.4477 95 28 94.5523 28 94C28 93.4477 28.4477 93 29 93C29.5523 93 30 93.4477 30 94Z"
      fill="black"
    />
    <path
      d="M54 94C54 94.5523 53.5523 95 53 95C52.4477 95 52 94.5523 52 94C52 93.4477 52.4477 93 53 93C53.5523 93 54 93.4477 54 94Z"
      fill="black"
    />
    <path
      d="M54 76C54 76.5523 53.5523 77 53 77C52.4477 77 52 76.5523 52 76C52 75.4477 52.4477 75 53 75C53.5523 75 54 75.4477 54 76Z"
      fill="black"
    />
    <path
      d="M58 130C58 130.552 57.5523 131 57 131C56.4477 131 56 130.552 56 130C56 129.448 56.4477 129 57 129C57.5523 129 58 129.448 58 130Z"
      fill="black"
    />
    <path
      d="M85 130C85 130.552 84.5523 131 84 131C83.4477 131 83 130.552 83 130C83 129.448 83.4477 129 84 129C84.5523 129 85 129.448 85 130Z"
      fill="black"
    />
    <path
      d="M96 130C96 130.552 95.5523 131 95 131C94.4477 131 94 130.552 94 130C94 129.448 94.4477 129 95 129C95.5523 129 96 129.448 96 130Z"
      fill="black"
    />
    <path
      d="M113 94C113 94.5523 112.552 95 112 95C111.448 95 111 94.5523 111 94C111 93.4477 111.448 93 112 93C112.552 93 113 93.4477 113 94Z"
      fill="black"
    />
    <path
      d="M113 76C113 76.5523 112.552 77 112 77C111.448 77 111 76.5523 111 76C111 75.4477 111.448 75 112 75C112.552 75 113 75.4477 113 76Z"
      fill="black"
    />
    <path
      d="M133 89C133 89.5523 132.552 90 132 90C131.448 90 131 89.5523 131 89C131 88.4477 131.448 88 132 88C132.552 88 133 88.4477 133 89Z"
      fill="black"
    />
    <path
      d="M33 81C33 81.5523 32.5523 82 32 82C31.4477 82 31 81.5523 31 81C31 80.4477 31.4477 80 32 80C32.5523 80 33 80.4477 33 81Z"
      fill="black"
    />
    <path
      d="M43 116C43 116.552 42.5523 117 42 117C41.4477 117 41 116.552 41 116C41 115.448 41.4477 115 42 115C42.5523 115 43 115.448 43 116Z"
      fill="black"
    />
    <path
      d="M39 123C39 123.552 38.5523 124 38 124C37.4477 124 37 123.552 37 123C37 122.448 37.4477 122 38 122C38.5523 122 39 122.448 39 123Z"
      fill="black"
    />
    <path
      d="M79 103C79 103.552 78.5523 104 78 104C77.4477 104 77 103.552 77 103C77 102.448 77.4477 102 78 102C78.5523 102 79 102.448 79 103Z"
      fill="black"
    />
    <path
      d="M91 105C91 105.552 90.5523 106 90 106C89.4477 106 89 105.552 89 105C89 104.448 89.4477 104 90 104C90.5523 104 91 104.448 91 105Z"
      fill="black"
    />
    <path
      d="M77 135C77 135.552 76.5523 136 76 136C75.4477 136 75 135.552 75 135C75 134.448 75.4477 134 76 134C76.5523 134 77 134.448 77 135Z"
      fill="black"
    />
    <path
      d="M100 84C100 84.5523 99.5523 85 99 85C98.4477 85 98 84.5523 98 84C98 83.4477 98.4477 83 99 83C99.5523 83 100 83.4477 100 84Z"
      fill="black"
    />
    <path
      d="M100 66C100 66.5523 99.5523 67 99 67C98.4477 67 98 66.5523 98 66C98 65.4477 98.4477 65 99 65C99.5523 65 100 65.4477 100 66Z"
      fill="black"
    />
    <path
      d="M124 81C124 81.5523 123.552 82 123 82C122.448 82 122 81.5523 122 81C122 80.4477 122.448 80 123 80C123.552 80 124 80.4477 124 81Z"
      fill="black"
    />
    <path
      d="M131 71C131 71.5523 130.552 72 130 72C129.448 72 129 71.5523 129 71C129 70.4477 129.448 70 130 70C130.552 70 131 70.4477 131 71Z"
      fill="black"
    />
    <path
      d="M42 90C42 90.5523 41.5523 91 41 91C40.4477 91 40 90.5523 40 90C40 89.4477 40.4477 89 41 89C41.5523 89 42 89.4477 42 90Z"
      fill="black"
    />
    <path
      d="M42 101C42 101.552 41.5523 102 41 102C40.4477 102 40 101.552 40 101C40 100.448 40.4477 100 41 100C41.5523 100 42 100.448 42 101Z"
      fill="black"
    />
    <path
      d="M63 86C63 86.5523 62.5523 87 62 87C61.4477 87 61 86.5523 61 86C61 85.4477 61.4477 85 62 85C62.5523 85 63 85.4477 63 86Z"
      fill="black"
    />
    <path
      d="M63 68C63 68.5523 62.5523 69 62 69C61.4477 69 61 68.5523 61 68C61 67.4477 61.4477 67 62 67C62.5523 67 63 67.4477 63 68Z"
      fill="black"
    />
    <path
      d="M75 82C75 82.5523 74.5523 83 74 83C73.4477 83 73 82.5523 73 82C73 81.4477 73.4477 81 74 81C74.5523 81 75 81.4477 75 82Z"
      fill="black"
    />
    <path
      d="M87 76C87 76.5523 86.5523 77 86 77C85.4477 77 85 76.5523 85 76C85 75.4477 85.4477 75 86 75C86.5523 75 87 75.4477 87 76Z"
      fill="black"
    />
    <path
      d="M100 76C100 76.5523 99.5523 77 99 77C98.4477 77 98 76.5523 98 76C98 75.4477 98.4477 75 99 75C99.5523 75 100 75.4477 100 76Z"
      fill="black"
    />
    <path
      d="M113 76C113 76.5523 112.552 77 112 77C111.448 77 111 76.5523 111 76C111 75.4477 111.448 75 112 75C112.552 75 113 75.4477 113 76Z"
      fill="black"
    />
    <path
      d="M139 76C139 76.5523 138.552 77 138 77C137.448 77 137 76.5523 137 76C137 75.4477 137.448 75 138 75C138.552 75 139 75.4477 139 76Z"
      fill="black"
    />
    <path
      d="M61 116C61 116.552 60.5523 117 60 117C59.4477 117 59 116.552 59 116C59 115.448 59.4477 115 60 115C60.5523 115 61 115.448 61 116Z"
      fill="black"
    />
    <path
      d="M72 110C72 110.552 71.5523 111 71 111C70.4477 111 70 110.552 70 110C70 109.448 70.4477 109 71 109C71.5523 109 72 109.448 72 110Z"
      fill="black"
    />
    <path
      d="M68 102C68 102.552 67.5523 103 67 103C66.4477 103 66 102.552 66 102C66 101.448 66.4477 101 67 101C67.5523 101 68 101.448 68 102Z"
      fill="black"
    />
    <path
      d="M92 93C92 93.5523 91.5523 94 91 94C90.4477 94 90 93.5523 90 93C90 92.4477 90.4477 92 91 92C91.5523 92 92 92.4477 92 93Z"
      fill="black"
    />
    <path
      d="M43 75C43 75.5523 42.5523 76 42 76C41.4477 76 41 75.5523 41 75C41 74.4477 41.4477 74 42 74C42.5523 74 43 74.4477 43 75Z"
      fill="black"
    />
    <path
      d="M80 91C80 91.5523 79.5523 92 79 92C78.4477 92 78 91.5523 78 91C78 90.4477 78.4477 90 79 90C79.5523 90 80 90.4477 80 91Z"
      fill="black"
    />
    <path
      d="M80 73C80 73.5523 79.5523 74 79 74C78.4477 74 78 73.5523 78 73C78 72.4477 78.4477 72 79 72C79.5523 72 80 72.4477 80 73Z"
      fill="black"
    />
    <path
      d="M115 87C115 87.5523 114.552 88 114 88C113.448 88 113 87.5523 113 87C113 86.4477 113.448 86 114 86C114.552 86 115 86.4477 115 87Z"
      fill="black"
    />
    <path
      d="M115 69C115 69.5523 114.552 70 114 70C113.448 70 113 69.5523 113 69C113 68.4477 113.448 68 114 68C114.552 68 115 68.4477 115 69Z"
      fill="black"
    />
    <path
      d="M122 71C122 71.5523 121.552 72 121 72C120.448 72 120 71.5523 120 71C120 70.4477 120.448 70 121 70C121.552 70 122 70.4477 122 71Z"
      fill="black"
    />
    <path
      d="M137 62C137 62.5523 136.552 63 136 63C135.448 63 135 62.5523 135 62C135 61.4477 135.448 61 136 61C136.552 61 137 61.4477 137 62Z"
      fill="black"
    />
    <path
      d="M31 109C31 109.552 30.5523 110 30 110C29.4477 110 29 109.552 29 109C29 108.448 29.4477 108 30 108C30.5523 108 31 108.448 31 109Z"
      stroke="black"
    />
    <path
      d="M83 116C83 116.552 82.5523 117 82 117C81.4477 117 81 116.552 81 116C81 115.448 81.4477 115 82 115C82.5523 115 83 115.448 83 116Z"
      stroke="black"
    />
    <path
      d="M79 123C79 123.552 78.5523 124 78 124C77.4477 124 77 123.552 77 123C77 122.448 77.4477 122 78 122C78.5523 122 79 122.448 79 123Z"
      stroke="black"
    />
    <path
      d="M99 121C99 121.552 98.5523 122 98 122C97.4477 122 97 121.552 97 121C97 120.448 97.4477 120 98 120C98.5523 120 99 120.448 99 121Z"
      stroke="black"
    />
    <path
      d="M100 111C100 111.552 99.5523 112 99 112C98.4477 112 98 111.552 98 111C98 110.448 98.4477 110 99 110C99.5523 110 100 110.448 100 111Z"
      stroke="black"
    />
    <path
      d="M120 116C120 116.552 119.552 117 119 117C118.448 117 118 116.552 118 116C118 115.448 118.448 115 119 115C119.552 115 120 115.448 120 116Z"
      stroke="black"
    />
    <path
      d="M130 102C130 102.552 129.552 103 129 103C128.448 103 128 102.552 128 102C128 101.448 128.448 101 129 101C129.552 101 130 101.448 130 102Z"
      stroke="black"
    />
    <path
      d="M21 88C21 88.5523 20.5523 89 20 89C19.4477 89 19 88.5523 19 88C19 87.4477 19.4477 87 20 87C20.5523 87 21 87.4477 21 88Z"
      stroke="black"
    />
    <path
      d="M54 104C54 104.552 53.5523 105 53 105C52.4477 105 52 104.552 52 104C52 103.448 52.4477 103 53 103C53.5523 103 54 103.448 54 104Z"
      stroke="black"
    />
    <path
      d="M51 124C51 124.552 50.5523 125 50 125C49.4477 125 49 124.552 49 124C49 123.448 49.4477 123 50 123C50.5523 123 51 123.448 51 124Z"
      stroke="black"
    />
    <path
      d="M69 128C69 128.552 68.5523 129 68 129C67.4477 129 67 128.552 67 128C67 127.448 67.4477 127 68 127C68.5523 127 69 127.448 69 128Z"
      stroke="black"
    />
    <path
      d="M103 102C103 102.552 102.552 103 102 103C101.448 103 101 102.552 101 102C101 101.448 101.448 101 102 101C102.552 101 103 101.448 103 102Z"
      stroke="black"
    />
    <path
      d="M117 106C117 106.552 116.552 107 116 107C115.448 107 115 106.552 115 106C115 105.448 115.448 105 116 105C116.552 105 117 105.448 117 106Z"
      stroke="black"
    />
    <path
      d="M109 123C109 123.552 108.552 124 108 124C107.448 124 107 123.552 107 123C107 122.448 107.448 122 108 122C108.552 122 109 122.448 109 123Z"
      stroke="black"
    />
    <path
      d="M123 92C123 92.5523 122.552 93 122 93C121.448 93 121 92.5523 121 92C121 91.4477 121.448 91 122 91C122.552 91 123 91.4477 123 92Z"
      stroke="black"
    />
    <path
      d="M30 94C30 94.5523 29.5523 95 29 95C28.4477 95 28 94.5523 28 94C28 93.4477 28.4477 93 29 93C29.5523 93 30 93.4477 30 94Z"
      stroke="black"
    />
    <path
      d="M54 94C54 94.5523 53.5523 95 53 95C52.4477 95 52 94.5523 52 94C52 93.4477 52.4477 93 53 93C53.5523 93 54 93.4477 54 94Z"
      stroke="black"
    />
    <path
      d="M54 76C54 76.5523 53.5523 77 53 77C52.4477 77 52 76.5523 52 76C52 75.4477 52.4477 75 53 75C53.5523 75 54 75.4477 54 76Z"
      stroke="black"
    />
    <path
      d="M58 130C58 130.552 57.5523 131 57 131C56.4477 131 56 130.552 56 130C56 129.448 56.4477 129 57 129C57.5523 129 58 129.448 58 130Z"
      stroke="black"
    />
    <path
      d="M85 130C85 130.552 84.5523 131 84 131C83.4477 131 83 130.552 83 130C83 129.448 83.4477 129 84 129C84.5523 129 85 129.448 85 130Z"
      stroke="black"
    />
    <path
      d="M96 130C96 130.552 95.5523 131 95 131C94.4477 131 94 130.552 94 130C94 129.448 94.4477 129 95 129C95.5523 129 96 129.448 96 130Z"
      stroke="black"
    />
    <path
      d="M113 94C113 94.5523 112.552 95 112 95C111.448 95 111 94.5523 111 94C111 93.4477 111.448 93 112 93C112.552 93 113 93.4477 113 94Z"
      stroke="black"
    />
    <path
      d="M113 76C113 76.5523 112.552 77 112 77C111.448 77 111 76.5523 111 76C111 75.4477 111.448 75 112 75C112.552 75 113 75.4477 113 76Z"
      stroke="black"
    />
    <path
      d="M133 89C133 89.5523 132.552 90 132 90C131.448 90 131 89.5523 131 89C131 88.4477 131.448 88 132 88C132.552 88 133 88.4477 133 89Z"
      stroke="black"
    />
    <path
      d="M33 81C33 81.5523 32.5523 82 32 82C31.4477 82 31 81.5523 31 81C31 80.4477 31.4477 80 32 80C32.5523 80 33 80.4477 33 81Z"
      stroke="black"
    />
    <path
      d="M43 116C43 116.552 42.5523 117 42 117C41.4477 117 41 116.552 41 116C41 115.448 41.4477 115 42 115C42.5523 115 43 115.448 43 116Z"
      stroke="black"
    />
    <path
      d="M39 123C39 123.552 38.5523 124 38 124C37.4477 124 37 123.552 37 123C37 122.448 37.4477 122 38 122C38.5523 122 39 122.448 39 123Z"
      stroke="black"
    />
    <path
      d="M79 103C79 103.552 78.5523 104 78 104C77.4477 104 77 103.552 77 103C77 102.448 77.4477 102 78 102C78.5523 102 79 102.448 79 103Z"
      stroke="black"
    />
    <path
      d="M91 105C91 105.552 90.5523 106 90 106C89.4477 106 89 105.552 89 105C89 104.448 89.4477 104 90 104C90.5523 104 91 104.448 91 105Z"
      stroke="black"
    />
    <path
      d="M77 135C77 135.552 76.5523 136 76 136C75.4477 136 75 135.552 75 135C75 134.448 75.4477 134 76 134C76.5523 134 77 134.448 77 135Z"
      stroke="black"
    />
    <path
      d="M100 84C100 84.5523 99.5523 85 99 85C98.4477 85 98 84.5523 98 84C98 83.4477 98.4477 83 99 83C99.5523 83 100 83.4477 100 84Z"
      stroke="black"
    />
    <path
      d="M100 66C100 66.5523 99.5523 67 99 67C98.4477 67 98 66.5523 98 66C98 65.4477 98.4477 65 99 65C99.5523 65 100 65.4477 100 66Z"
      stroke="black"
    />
    <path
      d="M124 81C124 81.5523 123.552 82 123 82C122.448 82 122 81.5523 122 81C122 80.4477 122.448 80 123 80C123.552 80 124 80.4477 124 81Z"
      stroke="black"
    />
    <path
      d="M131 71C131 71.5523 130.552 72 130 72C129.448 72 129 71.5523 129 71C129 70.4477 129.448 70 130 70C130.552 70 131 70.4477 131 71Z"
      stroke="black"
    />
    <path
      d="M42 90C42 90.5523 41.5523 91 41 91C40.4477 91 40 90.5523 40 90C40 89.4477 40.4477 89 41 89C41.5523 89 42 89.4477 42 90Z"
      stroke="black"
    />
    <path
      d="M42 101C42 101.552 41.5523 102 41 102C40.4477 102 40 101.552 40 101C40 100.448 40.4477 100 41 100C41.5523 100 42 100.448 42 101Z"
      stroke="black"
    />
    <path
      d="M63 86C63 86.5523 62.5523 87 62 87C61.4477 87 61 86.5523 61 86C61 85.4477 61.4477 85 62 85C62.5523 85 63 85.4477 63 86Z"
      stroke="black"
    />
    <path
      d="M63 68C63 68.5523 62.5523 69 62 69C61.4477 69 61 68.5523 61 68C61 67.4477 61.4477 67 62 67C62.5523 67 63 67.4477 63 68Z"
      stroke="black"
    />
    <path
      d="M75 82C75 82.5523 74.5523 83 74 83C73.4477 83 73 82.5523 73 82C73 81.4477 73.4477 81 74 81C74.5523 81 75 81.4477 75 82Z"
      stroke="black"
    />
    <path
      d="M87 76C87 76.5523 86.5523 77 86 77C85.4477 77 85 76.5523 85 76C85 75.4477 85.4477 75 86 75C86.5523 75 87 75.4477 87 76Z"
      stroke="black"
    />
    <path
      d="M100 76C100 76.5523 99.5523 77 99 77C98.4477 77 98 76.5523 98 76C98 75.4477 98.4477 75 99 75C99.5523 75 100 75.4477 100 76Z"
      stroke="black"
    />
    <path
      d="M113 76C113 76.5523 112.552 77 112 77C111.448 77 111 76.5523 111 76C111 75.4477 111.448 75 112 75C112.552 75 113 75.4477 113 76Z"
      stroke="black"
    />
    <path
      d="M139 76C139 76.5523 138.552 77 138 77C137.448 77 137 76.5523 137 76C137 75.4477 137.448 75 138 75C138.552 75 139 75.4477 139 76Z"
      stroke="black"
    />
    <path
      d="M61 116C61 116.552 60.5523 117 60 117C59.4477 117 59 116.552 59 116C59 115.448 59.4477 115 60 115C60.5523 115 61 115.448 61 116Z"
      stroke="black"
    />
    <path
      d="M72 110C72 110.552 71.5523 111 71 111C70.4477 111 70 110.552 70 110C70 109.448 70.4477 109 71 109C71.5523 109 72 109.448 72 110Z"
      stroke="black"
    />
    <path
      d="M68 102C68 102.552 67.5523 103 67 103C66.4477 103 66 102.552 66 102C66 101.448 66.4477 101 67 101C67.5523 101 68 101.448 68 102Z"
      stroke="black"
    />
    <path
      d="M92 93C92 93.5523 91.5523 94 91 94C90.4477 94 90 93.5523 90 93C90 92.4477 90.4477 92 91 92C91.5523 92 92 92.4477 92 93Z"
      stroke="black"
    />
    <path
      d="M43 75C43 75.5523 42.5523 76 42 76C41.4477 76 41 75.5523 41 75C41 74.4477 41.4477 74 42 74C42.5523 74 43 74.4477 43 75Z"
      stroke="black"
    />
    <path
      d="M80 91C80 91.5523 79.5523 92 79 92C78.4477 92 78 91.5523 78 91C78 90.4477 78.4477 90 79 90C79.5523 90 80 90.4477 80 91Z"
      stroke="black"
    />
    <path
      d="M80 73C80 73.5523 79.5523 74 79 74C78.4477 74 78 73.5523 78 73C78 72.4477 78.4477 72 79 72C79.5523 72 80 72.4477 80 73Z"
      stroke="black"
    />
    <path
      d="M115 87C115 87.5523 114.552 88 114 88C113.448 88 113 87.5523 113 87C113 86.4477 113.448 86 114 86C114.552 86 115 86.4477 115 87Z"
      stroke="black"
    />
    <path
      d="M115 69C115 69.5523 114.552 70 114 70C113.448 70 113 69.5523 113 69C113 68.4477 113.448 68 114 68C114.552 68 115 68.4477 115 69Z"
      stroke="black"
    />
    <path
      d="M122 71C122 71.5523 121.552 72 121 72C120.448 72 120 71.5523 120 71C120 70.4477 120.448 70 121 70C121.552 70 122 70.4477 122 71Z"
      stroke="black"
    />
    <path
      d="M137 62C137 62.5523 136.552 63 136 63C135.448 63 135 62.5523 135 62C135 61.4477 135.448 61 136 61C136.552 61 137 61.4477 137 62Z"
      stroke="black"
    />
  </g>
</svg>