<svg
  width="261"
  height="249"
  viewBox="0 0 261 249"
  fill="none"
  xmlns="http://www.w3.org/2000/svg"
>
  <g transform="translate(-46, -13)">
    <title>tops - pixie</title>
    <path
      d="M121.837 88.8195C121.051 87.0776 121.051 87.0779 121.05 87.0783L121.047 87.0794L121.04 87.0828L121.015 87.0942C120.994 87.1038 120.964 87.1177 120.925 87.1357C120.89 87.1518 120.848 87.1714 120.799 87.1943C120.74 87.2223 120.67 87.2553 120.591 87.2932C120.301 87.4313 119.882 87.6353 119.352 87.9045C118.291 88.4426 116.782 89.2418 114.972 90.2948C111.356 92.3984 106.515 95.527 101.628 99.626C91.9116 107.776 81.7052 120.03 81.0904 135.926C80.8259 142.765 79.9706 175.806 80.1619 188.433C80.323 199.065 85.8253 210.481 93.4581 221.008C100.109 230.18 108.508 238.857 116.832 246.008C79.0664 247.501 50.4555 242.546 31.1209 237.121C21.038 234.292 13.4742 231.334 8.44733 229.094C6.46024 228.208 4.86951 227.434 3.67627 226.825C12.7707 220.141 20.3578 208.682 25.3638 191.675C30.8537 173.024 33.288 147.554 31.1521 113.963C29.2166 83.5247 44.0087 57.8092 66.3601 39.629C88.7347 21.4301 118.55 10.9109 146.238 10.9109C161.221 10.9109 173.377 13.8448 183.177 20.9616C192.98 28.081 200.668 39.5619 206.363 57.1322L206.758 58.3516L208.036 58.4485C220.412 59.3865 229.115 64.4881 235.532 72.6621C242.017 80.924 246.24 92.4216 249.336 106.232C251.376 115.332 249.389 124.311 247.001 134.651L246.89 135.133C244.553 145.25 241.952 156.505 243.096 169.666C244.126 181.51 248.853 193.135 252.782 202.074C253.287 203.222 253.776 204.321 254.242 205.368C255.617 208.455 256.793 211.096 257.586 213.253C258.118 214.698 258.425 215.79 258.523 216.566C258.573 216.963 258.555 217.168 258.542 217.254C258.097 217.665 257.273 218.12 255.957 218.522C254.588 218.94 252.864 219.248 250.882 219.442C246.921 219.828 242.138 219.738 237.544 219.296C232.942 218.853 228.638 218.067 225.623 217.108C224.092 216.622 223.033 216.134 222.436 215.711C222.345 215.646 222.275 215.591 222.222 215.546C222.594 214.259 223.132 212.723 223.753 210.949C226.947 201.824 232.348 186.398 228.855 166.08C226.766 153.924 221.189 132.457 216.162 114.11C213.643 104.919 211.255 96.4828 209.496 90.3444C208.616 87.275 207.894 84.7798 207.391 83.0515C207.14 82.1874 206.944 81.515 206.81 81.0584L206.658 80.5384L206.619 80.4055L206.609 80.3717L206.607 80.3632L206.606 80.361C206.606 80.3605 206.606 80.3602 204.772 80.8993L206.606 80.3602L205.677 77.2011L203.395 79.5745L203.395 79.5751L203.391 79.579L203.372 79.5991C203.353 79.6178 203.325 79.6471 203.286 79.6867C203.208 79.7659 203.088 79.8861 202.928 80.0445C202.607 80.3612 202.123 80.8304 201.482 81.4293C200.199 82.6271 198.286 84.343 195.784 86.3943C190.779 90.4982 183.428 95.9376 174.067 101.257C156.25 111.382 131.216 121.037 101.246 120.29C110.86 111.359 116.392 104.018 119.562 98.7007C121.329 95.736 122.36 93.4028 122.955 91.7777C123.252 90.9654 123.44 90.3309 123.555 89.8839C123.613 89.6605 123.653 89.484 123.68 89.3558C123.693 89.2917 123.703 89.2397 123.711 89.1998C123.714 89.1799 123.717 89.1631 123.72 89.1493L123.723 89.1309L123.724 89.1235L123.724 89.1202C123.725 89.1187 123.725 89.1172 121.837 88.8195ZM121.837 88.8195L121.051 87.0776L124.276 85.6229L123.725 89.1172L121.837 88.8195ZM222.068 215.388C222.071 215.388 222.082 215.402 222.097 215.428C222.073 215.401 222.066 215.388 222.068 215.388Z"
      fill="$fillColor"
      stroke="black"
      stroke-width="3.82184"
    />
    <path
      d="M207 58C207.5 62.5 206.7 71.5 205.5 77.5"
      stroke="black"
      stroke-width="4"
    />
  </g>
</svg>
