<svg
  width="306"
  height="340"
  viewBox="0 0 306 340"
  fill="none"
  xmlns="http://www.w3.org/2000/svg"
>
  <g transform="translate(-57, -13)">
    <title>tops - wave</title>
    <path
      d="M209.76 336.932C209.271 336.902 208.865 336.872 208.544 336.847C202.393 327.458 196.789 311.969 192.447 296.059C188.226 280.589 185.261 264.968 184.147 254.649C221.22 243.931 244.458 205.667 238.871 166.189C238.864 166.117 238.856 166.067 238.856 166.066C238.848 166.006 238.837 165.938 238.825 165.867C238.802 165.724 238.768 165.532 238.726 165.3C238.641 164.832 238.516 164.172 238.353 163.346C238.028 161.693 237.552 159.358 236.942 156.532C235.722 150.88 233.967 143.249 231.825 135.155C229.685 127.065 227.152 118.485 224.372 110.945C221.613 103.46 218.541 96.8015 215.264 92.7056L214.967 92.3351L214.532 92.1463C212.6 91.3081 210.593 90.3741 208.499 89.3991C198.568 84.775 186.659 79.2299 171.235 78.6199C152.46 77.8774 128.684 84.3957 96.5441 107.706L94.5214 109.173L96.467 110.74C112.393 123.574 115.836 140.598 115.1 155.048C114.539 166.077 111.551 175.459 109.865 180.149C108.704 178.452 107.964 176.319 107.408 173.814C107.023 172.083 106.743 170.258 106.449 168.347L106.403 168.045C106.096 166.051 105.769 163.97 105.292 161.961C104.341 157.95 102.732 153.941 99.1602 151.102C95.5807 148.257 90.3641 146.848 82.7671 147.272L80.5398 147.396L81.0046 149.578L92.3634 202.891L92.3824 202.98L92.41 203.068C96.4679 215.93 103.426 227.078 112.323 235.88C112.399 236.007 112.509 236.193 112.65 236.434C112.939 236.928 113.356 237.653 113.861 238.563C114.87 240.384 116.229 242.941 117.621 245.886C120.435 251.835 123.282 259.138 123.83 265.102C124.386 271.154 122.865 278.962 121.123 285.412C120.26 288.605 119.361 291.406 118.677 293.407C118.535 293.824 118.402 294.206 118.281 294.549C113.249 292.144 108.754 292.323 104.902 294.565C100.738 296.989 97.6892 301.625 95.4191 306.781C91.2706 316.202 89.2756 328.42 88.3551 336.002C63.4846 330.298 44.281 324.507 31.2149 320.107C24.5012 317.846 19.408 315.953 15.9993 314.627C14.2949 313.964 13.0117 313.443 12.1575 313.089C11.9454 313.002 11.7598 312.924 11.6007 312.857C11.4477 312.466 11.2377 311.916 10.9828 311.219C10.4158 309.667 9.62676 307.384 8.74853 304.479C6.99149 298.667 4.88057 290.38 3.4734 280.502C0.656265 260.725 0.676883 234.696 11.8698 209.384C13.679 205.292 15.94 201.089 18.3903 196.533C27.8582 178.931 40.1551 156.07 40.1551 114.084C40.1551 83.4931 55.0029 57.7305 76.8623 39.5692C98.7415 21.3915 127.56 10.9109 155.237 10.9109C170.368 10.9109 182.533 12.6444 192.311 18.5511C202.028 24.4212 209.679 34.5978 215.362 52.1322C215.94 53.9168 217.851 55.0074 219.719 54.4015C231.034 50.7304 248.191 54.4361 262.673 63.8904C277.091 73.3032 288.289 88.0455 288.289 105.814C288.289 121.24 285.647 131.664 283.071 141.815L283.071 141.815C279.952 154.104 276.94 165.974 279.065 185.313C279.774 191.762 281.216 196.336 283.231 200.128C285.213 203.859 287.712 206.747 290.345 209.792L290.405 209.861C296.679 217.113 299.534 223.079 300.455 228.327C301.375 233.562 300.412 238.31 298.623 243.237C297.723 245.712 296.629 248.197 295.47 250.815L295.37 251.04C294.249 253.573 293.074 256.225 292.019 259.016C289.836 264.787 288.133 271.223 288.302 278.851C288.446 285.326 289.594 289.764 291.311 293.122C293.008 296.442 295.199 298.565 297.111 300.417L297.162 300.466C298.905 302.155 300.355 303.577 301.428 305.57C302.387 307.351 303.098 309.702 303.217 313.232C279.208 327.511 255.445 333.413 237.601 335.734C228.565 336.91 221.057 337.166 215.818 337.129C213.199 337.11 211.149 337.019 209.76 336.932Z"
      fill="$fillColor"
      stroke="black"
      stroke-width="3.82184"
    />
  </g>
</svg>
