<svg
  width="40"
  height="40"
  viewBox="0 0 40 40"
  fill="none"
  xmlns="http://www.w3.org/2000/svg"
>
  <path
    d="M0 17.312C0 3.056 3.056 0 17.312 0h5.376C36.944 0 40 3.056 40 17.312v5.376C40 36.944 36.944 40 22.688 40h-5.376C3.056 40 0 36.944 0 22.688v-5.376z"
    fill="#6967FE"
  />
  <path
    fill-rule="evenodd"
    clip-rule="evenodd"
    d="M17.05 0h5.638C36.944 0 40 3.056 40 17.312v5.376c0 .447-.003.882-.01 1.307-.162.003-.326.005-.49.005C27.074 24 17 13.926 17 1.5c0-.504.017-1.004.05-1.5z"
    fill="#85E9F4"
  />
</svg>